<mxfile host="app.diagrams.net" modified="2023-04-12T12:04:52.376Z" agent="Mozilla/5.0 (Windows NT 10.0; WOW64) AppleWebKit/537.36 (KHTML, like Gecko) Chrome/70.0.3538.25 Safari/537.36 Core/1.70.3880.400 QQBrowser/10.8.4554.400" etag="T4w5SSTxnPrfxT_PtyGg" version="21.1.7" type="github">
  <diagram name="第 1 页" id="YcZ9tNFfG13hEdCVb2yW">
    <mxGraphModel dx="753" dy="490" grid="1" gridSize="10" guides="1" tooltips="1" connect="1" arrows="1" fold="1" page="1" pageScale="1" pageWidth="827" pageHeight="1169" math="0" shadow="0">
      <root>
        <mxCell id="0" />
        <mxCell id="1" parent="0" />
        <mxCell id="zpt0ByVF7FlbsJMjRz1K-8" style="edgeStyle=orthogonalEdgeStyle;rounded=0;orthogonalLoop=1;jettySize=auto;html=1;exitX=1;exitY=0.5;exitDx=0;exitDy=0;entryX=0;entryY=0.5;entryDx=0;entryDy=0;" edge="1" parent="1" source="zpt0ByVF7FlbsJMjRz1K-1" target="zpt0ByVF7FlbsJMjRz1K-5">
          <mxGeometry relative="1" as="geometry" />
        </mxCell>
        <mxCell id="zpt0ByVF7FlbsJMjRz1K-10" style="edgeStyle=orthogonalEdgeStyle;rounded=0;orthogonalLoop=1;jettySize=auto;html=1;exitX=0.5;exitY=1;exitDx=0;exitDy=0;entryX=0.5;entryY=0;entryDx=0;entryDy=0;" edge="1" parent="1" source="zpt0ByVF7FlbsJMjRz1K-1" target="zpt0ByVF7FlbsJMjRz1K-2">
          <mxGeometry relative="1" as="geometry" />
        </mxCell>
        <mxCell id="zpt0ByVF7FlbsJMjRz1K-1" value="Input waveform" style="rounded=1;whiteSpace=wrap;html=1;" vertex="1" parent="1">
          <mxGeometry x="230" y="50" width="120" height="30" as="geometry" />
        </mxCell>
        <mxCell id="zpt0ByVF7FlbsJMjRz1K-9" style="edgeStyle=orthogonalEdgeStyle;rounded=0;orthogonalLoop=1;jettySize=auto;html=1;exitX=1;exitY=0.5;exitDx=0;exitDy=0;entryX=0.25;entryY=0;entryDx=0;entryDy=0;" edge="1" parent="1" source="zpt0ByVF7FlbsJMjRz1K-2" target="zpt0ByVF7FlbsJMjRz1K-4">
          <mxGeometry relative="1" as="geometry" />
        </mxCell>
        <mxCell id="zpt0ByVF7FlbsJMjRz1K-11" style="edgeStyle=orthogonalEdgeStyle;rounded=0;orthogonalLoop=1;jettySize=auto;html=1;exitX=0.5;exitY=1;exitDx=0;exitDy=0;entryX=0.5;entryY=0;entryDx=0;entryDy=0;" edge="1" parent="1" source="zpt0ByVF7FlbsJMjRz1K-2" target="zpt0ByVF7FlbsJMjRz1K-3">
          <mxGeometry relative="1" as="geometry" />
        </mxCell>
        <mxCell id="zpt0ByVF7FlbsJMjRz1K-2" value="gammatone" style="rounded=1;whiteSpace=wrap;html=1;" vertex="1" parent="1">
          <mxGeometry x="230" y="110" width="120" height="30" as="geometry" />
        </mxCell>
        <mxCell id="zpt0ByVF7FlbsJMjRz1K-18" style="edgeStyle=orthogonalEdgeStyle;rounded=0;orthogonalLoop=1;jettySize=auto;html=1;exitX=0.25;exitY=1;exitDx=0;exitDy=0;entryX=0.5;entryY=0;entryDx=0;entryDy=0;" edge="1" parent="1" source="zpt0ByVF7FlbsJMjRz1K-3" target="zpt0ByVF7FlbsJMjRz1K-12">
          <mxGeometry relative="1" as="geometry" />
        </mxCell>
        <mxCell id="zpt0ByVF7FlbsJMjRz1K-19" style="edgeStyle=orthogonalEdgeStyle;rounded=0;orthogonalLoop=1;jettySize=auto;html=1;exitX=0.5;exitY=1;exitDx=0;exitDy=0;entryX=0.5;entryY=0;entryDx=0;entryDy=0;" edge="1" parent="1" source="zpt0ByVF7FlbsJMjRz1K-3" target="zpt0ByVF7FlbsJMjRz1K-13">
          <mxGeometry relative="1" as="geometry" />
        </mxCell>
        <mxCell id="zpt0ByVF7FlbsJMjRz1K-20" style="edgeStyle=orthogonalEdgeStyle;rounded=0;orthogonalLoop=1;jettySize=auto;html=1;exitX=0.75;exitY=1;exitDx=0;exitDy=0;entryX=0.5;entryY=0;entryDx=0;entryDy=0;" edge="1" parent="1" source="zpt0ByVF7FlbsJMjRz1K-3" target="zpt0ByVF7FlbsJMjRz1K-14">
          <mxGeometry relative="1" as="geometry" />
        </mxCell>
        <mxCell id="zpt0ByVF7FlbsJMjRz1K-3" value="CNN" style="rounded=1;whiteSpace=wrap;html=1;" vertex="1" parent="1">
          <mxGeometry x="230" y="170" width="120" height="30" as="geometry" />
        </mxCell>
        <mxCell id="zpt0ByVF7FlbsJMjRz1K-4" value="Comb-filter" style="rounded=1;whiteSpace=wrap;html=1;" vertex="1" parent="1">
          <mxGeometry x="380" y="170" width="120" height="30" as="geometry" />
        </mxCell>
        <mxCell id="zpt0ByVF7FlbsJMjRz1K-7" style="edgeStyle=orthogonalEdgeStyle;rounded=0;orthogonalLoop=1;jettySize=auto;html=1;exitX=0.5;exitY=1;exitDx=0;exitDy=0;entryX=0.5;entryY=0;entryDx=0;entryDy=0;" edge="1" parent="1" source="zpt0ByVF7FlbsJMjRz1K-5" target="zpt0ByVF7FlbsJMjRz1K-4">
          <mxGeometry relative="1" as="geometry" />
        </mxCell>
        <mxCell id="zpt0ByVF7FlbsJMjRz1K-5" value="pitch" style="rounded=1;whiteSpace=wrap;html=1;" vertex="1" parent="1">
          <mxGeometry x="380" y="50" width="120" height="30" as="geometry" />
        </mxCell>
        <mxCell id="zpt0ByVF7FlbsJMjRz1K-22" style="edgeStyle=orthogonalEdgeStyle;rounded=0;orthogonalLoop=1;jettySize=auto;html=1;exitX=0.5;exitY=1;exitDx=0;exitDy=0;entryX=0.5;entryY=0;entryDx=0;entryDy=0;" edge="1" parent="1" source="zpt0ByVF7FlbsJMjRz1K-12" target="zpt0ByVF7FlbsJMjRz1K-21">
          <mxGeometry relative="1" as="geometry" />
        </mxCell>
        <mxCell id="zpt0ByVF7FlbsJMjRz1K-12" value="MASK" style="rounded=1;whiteSpace=wrap;html=1;" vertex="1" parent="1">
          <mxGeometry x="210" y="230" width="60" height="30" as="geometry" />
        </mxCell>
        <mxCell id="zpt0ByVF7FlbsJMjRz1K-28" style="edgeStyle=orthogonalEdgeStyle;rounded=0;orthogonalLoop=1;jettySize=auto;html=1;exitX=0.5;exitY=1;exitDx=0;exitDy=0;entryX=0.25;entryY=0;entryDx=0;entryDy=0;" edge="1" parent="1" source="zpt0ByVF7FlbsJMjRz1K-13" target="zpt0ByVF7FlbsJMjRz1K-15">
          <mxGeometry relative="1" as="geometry" />
        </mxCell>
        <mxCell id="zpt0ByVF7FlbsJMjRz1K-13" value="Enhanced weight" style="rounded=1;whiteSpace=wrap;html=1;" vertex="1" parent="1">
          <mxGeometry x="270" y="230" width="50" height="30" as="geometry" />
        </mxCell>
        <mxCell id="zpt0ByVF7FlbsJMjRz1K-29" style="edgeStyle=orthogonalEdgeStyle;rounded=0;orthogonalLoop=1;jettySize=auto;html=1;exitX=0.5;exitY=1;exitDx=0;exitDy=0;entryX=0.633;entryY=-0.067;entryDx=0;entryDy=0;entryPerimeter=0;" edge="1" parent="1" source="zpt0ByVF7FlbsJMjRz1K-14" target="zpt0ByVF7FlbsJMjRz1K-15">
          <mxGeometry relative="1" as="geometry" />
        </mxCell>
        <mxCell id="zpt0ByVF7FlbsJMjRz1K-14" value="comb weight" style="rounded=1;whiteSpace=wrap;html=1;" vertex="1" parent="1">
          <mxGeometry x="320" y="230" width="60" height="30" as="geometry" />
        </mxCell>
        <mxCell id="zpt0ByVF7FlbsJMjRz1K-30" style="edgeStyle=orthogonalEdgeStyle;rounded=0;orthogonalLoop=1;jettySize=auto;html=1;exitX=0.25;exitY=1;exitDx=0;exitDy=0;entryX=0.5;entryY=0;entryDx=0;entryDy=0;" edge="1" parent="1" source="zpt0ByVF7FlbsJMjRz1K-15" target="zpt0ByVF7FlbsJMjRz1K-16">
          <mxGeometry relative="1" as="geometry" />
        </mxCell>
        <mxCell id="zpt0ByVF7FlbsJMjRz1K-31" style="edgeStyle=orthogonalEdgeStyle;rounded=0;orthogonalLoop=1;jettySize=auto;html=1;exitX=0.75;exitY=1;exitDx=0;exitDy=0;entryX=0.428;entryY=-0.03;entryDx=0;entryDy=0;entryPerimeter=0;" edge="1" parent="1" source="zpt0ByVF7FlbsJMjRz1K-15" target="zpt0ByVF7FlbsJMjRz1K-17">
          <mxGeometry relative="1" as="geometry">
            <mxPoint x="400" y="290" as="targetPoint" />
            <Array as="points">
              <mxPoint x="335" y="320" />
              <mxPoint x="375" y="320" />
              <mxPoint x="375" y="290" />
              <mxPoint x="399" y="290" />
            </Array>
          </mxGeometry>
        </mxCell>
        <mxCell id="zpt0ByVF7FlbsJMjRz1K-15" value="VAD" style="rounded=1;whiteSpace=wrap;html=1;" vertex="1" parent="1">
          <mxGeometry x="290" y="280" width="60" height="30" as="geometry" />
        </mxCell>
        <mxCell id="zpt0ByVF7FlbsJMjRz1K-26" style="edgeStyle=orthogonalEdgeStyle;rounded=0;orthogonalLoop=1;jettySize=auto;html=1;exitX=0.5;exitY=1;exitDx=0;exitDy=0;entryX=0.5;entryY=0;entryDx=0;entryDy=0;entryPerimeter=0;" edge="1" parent="1" source="zpt0ByVF7FlbsJMjRz1K-16" target="zpt0ByVF7FlbsJMjRz1K-24">
          <mxGeometry relative="1" as="geometry" />
        </mxCell>
        <mxCell id="zpt0ByVF7FlbsJMjRz1K-16" value="voice part enhanced weight" style="rounded=1;whiteSpace=wrap;html=1;" vertex="1" parent="1">
          <mxGeometry x="270" y="330" width="90" height="50" as="geometry" />
        </mxCell>
        <mxCell id="zpt0ByVF7FlbsJMjRz1K-27" style="edgeStyle=orthogonalEdgeStyle;rounded=0;orthogonalLoop=1;jettySize=auto;html=1;exitX=0.5;exitY=1;exitDx=0;exitDy=0;" edge="1" parent="1" source="zpt0ByVF7FlbsJMjRz1K-17">
          <mxGeometry relative="1" as="geometry">
            <mxPoint x="340" y="430" as="targetPoint" />
          </mxGeometry>
        </mxCell>
        <mxCell id="zpt0ByVF7FlbsJMjRz1K-17" value="voice part comb weight" style="rounded=1;whiteSpace=wrap;html=1;" vertex="1" parent="1">
          <mxGeometry x="360" y="330" width="90" height="50" as="geometry" />
        </mxCell>
        <mxCell id="zpt0ByVF7FlbsJMjRz1K-25" style="edgeStyle=orthogonalEdgeStyle;rounded=0;orthogonalLoop=1;jettySize=auto;html=1;exitX=0.5;exitY=1;exitDx=0;exitDy=0;entryX=0;entryY=0.5;entryDx=0;entryDy=0;entryPerimeter=0;" edge="1" parent="1" source="zpt0ByVF7FlbsJMjRz1K-21" target="zpt0ByVF7FlbsJMjRz1K-24">
          <mxGeometry relative="1" as="geometry" />
        </mxCell>
        <mxCell id="zpt0ByVF7FlbsJMjRz1K-21" value="1-VAD" style="rounded=1;whiteSpace=wrap;html=1;" vertex="1" parent="1">
          <mxGeometry x="210" y="280" width="60" height="30" as="geometry" />
        </mxCell>
        <mxCell id="zpt0ByVF7FlbsJMjRz1K-24" value="" style="verticalLabelPosition=bottom;verticalAlign=top;html=1;shape=mxgraph.flowchart.summing_function;" vertex="1" parent="1">
          <mxGeometry x="320" y="430" width="35" height="30" as="geometry" />
        </mxCell>
        <mxCell id="zpt0ByVF7FlbsJMjRz1K-32" value="comb enhanced speech" style="rounded=1;whiteSpace=wrap;html=1;" vertex="1" parent="1">
          <mxGeometry x="292.5" y="480" width="90" height="50" as="geometry" />
        </mxCell>
      </root>
    </mxGraphModel>
  </diagram>
</mxfile>
